<svg width="1136" height="197" viewBox="0 0 1136 197" fill="none" xmlns="http://www.w3.org/2000/svg">
<path d="M5.90645e-05 3.78H62.6401L73.4401 145.8V173.34H79.9201V145.8L90.7201 3.78H153.36V192.78H120.96V66.42L124.2 23.22H117.72L103.68 192.78H50.2201L35.6401 23.22H29.1601L32.4001 66.42V192.78H5.90645e-05V3.78ZM309.772 158.76V192.78H176.932V155.52C176.932 145.62 178.372 137.16 181.252 130.14C184.312 123.12 188.542 117.18 193.942 112.32C199.522 107.46 206.182 103.5 213.922 100.44C221.662 97.2 230.392 94.5 240.112 92.34C247.312 90.72 253.162 88.92 257.662 86.94C262.342 84.78 266.032 82.44 268.732 79.92C271.432 77.22 273.232 74.34 274.132 71.28C275.212 68.04 275.752 64.44 275.752 60.48C275.752 52.92 272.962 46.62 267.382 41.58C261.982 36.54 254.422 34.02 244.702 34.02C234.442 34.02 226.252 37.17 220.132 43.47C214.012 49.59 210.952 58.14 210.952 69.12V81H175.312V65.88C175.312 57.06 176.842 48.69 179.902 40.77C183.142 32.67 187.642 25.65 193.402 19.71C199.342 13.59 206.542 8.82001 215.002 5.40001C223.462 1.80001 233.002 1.54972e-06 243.622 1.54972e-06C254.962 1.54972e-06 264.862 1.71 273.322 5.13C281.782 8.37 288.802 12.69 294.382 18.09C300.142 23.49 304.372 29.79 307.072 36.99C309.952 44.01 311.392 51.3 311.392 58.86V62.1C311.392 77.94 306.892 91.08 297.892 101.52C289.072 111.96 274.582 119.52 254.422 124.2C245.962 126.18 238.942 128.25 233.362 130.41C227.962 132.39 223.732 134.64 220.672 137.16C217.612 139.68 215.452 142.47 214.192 145.53C213.112 148.41 212.572 151.74 212.572 155.52V158.76H309.772ZM480.225 192.78H446.205V98.82C446.205 95.04 445.215 92.25 443.235 90.45C441.435 88.47 439.005 87.48 435.945 87.48C432.345 87.48 429.465 88.56 427.305 90.72C425.325 92.88 424.335 96.12 424.335 100.44V192.78H390.315V98.82C390.315 95.04 389.235 92.25 387.075 90.45C385.095 88.47 382.665 87.48 379.785 87.48C376.545 87.48 373.845 88.56 371.685 90.72C369.525 92.88 368.445 96.12 368.445 100.44V192.78H334.425V58.86H368.445V71.82H373.305C374.385 66.96 376.815 63 380.595 59.94C384.555 56.7 389.685 55.08 395.985 55.08C401.925 55.08 406.965 56.7 411.105 59.94C415.245 63 418.035 66.96 419.475 71.82H424.335C425.775 66.96 428.745 63 433.245 59.94C437.925 56.7 443.685 55.08 450.525 55.08C459.525 55.08 466.725 58.14 472.125 64.26C477.525 70.2 480.225 78.48 480.225 89.1V192.78ZM541.057 136.89C541.237 140.85 542.137 144.54 543.757 147.96C545.557 151.2 547.897 154.08 550.777 156.6C553.837 158.94 557.257 160.83 561.037 162.27C564.997 163.53 569.137 164.16 573.457 164.16C581.917 164.16 588.397 162.72 592.897 159.84C597.397 156.78 600.637 153.18 602.617 149.04L631.777 165.24C630.157 168.66 627.907 172.26 625.027 176.04C622.147 179.64 618.367 182.97 613.687 186.03C609.187 189.09 603.607 191.61 596.947 193.59C590.467 195.57 582.817 196.56 573.997 196.56C563.917 196.56 554.737 194.94 546.457 191.7C538.177 188.46 530.977 183.78 524.857 177.66C518.917 171.54 514.237 164.07 510.817 155.25C507.577 146.43 505.957 136.44 505.957 125.28V123.66C505.957 113.4 507.667 104.04 511.087 95.58C514.687 87.12 519.547 79.92 525.667 73.98C531.787 68.04 538.897 63.45 546.997 60.21C555.277 56.79 564.097 55.08 573.457 55.08C584.977 55.08 594.877 57.15 603.157 61.29C611.437 65.25 618.277 70.38 623.677 76.68C629.077 82.8 633.037 89.64 635.557 97.2C638.077 104.58 639.337 111.78 639.337 118.8V136.89H541.057ZM573.187 85.86C564.547 85.86 557.527 88.11 552.127 92.61C546.727 96.93 543.217 101.97 541.597 107.73H604.777C603.697 101.43 600.277 96.21 594.517 92.07C588.937 87.93 581.827 85.86 573.187 85.86ZM763.619 170.91C763.619 174.51 762.899 177.93 761.459 181.17C760.199 184.23 758.399 186.93 756.059 189.27C753.719 191.43 750.929 193.14 747.689 194.4C744.629 195.84 741.389 196.56 737.969 196.56C734.369 196.56 731.039 195.84 727.979 194.4C724.919 193.14 722.219 191.43 719.879 189.27C717.539 186.93 715.649 184.23 714.209 181.17C712.949 177.93 712.319 174.51 712.319 170.91C712.319 167.31 712.949 163.98 714.209 160.92C715.649 157.68 717.539 154.98 719.879 152.82C722.219 150.48 724.919 148.68 727.979 147.42C731.039 145.98 734.369 145.26 737.969 145.26C741.389 145.26 744.629 145.98 747.689 147.42C750.929 148.68 753.719 150.48 756.059 152.82C758.399 154.98 760.199 157.68 761.459 160.92C762.899 163.98 763.619 167.31 763.619 170.91ZM976.191 192.78H942.171V98.82C942.171 95.04 941.181 92.25 939.201 90.45C937.401 88.47 934.971 87.48 931.911 87.48C928.311 87.48 925.431 88.56 923.271 90.72C921.291 92.88 920.301 96.12 920.301 100.44V192.78H886.281V98.82C886.281 95.04 885.201 92.25 883.041 90.45C881.061 88.47 878.631 87.48 875.751 87.48C872.511 87.48 869.811 88.56 867.651 90.72C865.491 92.88 864.411 96.12 864.411 100.44V192.78H830.391V58.86H864.411V71.82H869.271C870.351 66.96 872.781 63 876.561 59.94C880.521 56.7 885.651 55.08 891.951 55.08C897.891 55.08 902.931 56.7 907.071 59.94C911.211 63 914.001 66.96 915.441 71.82H920.301C921.741 66.96 924.711 63 929.211 59.94C933.891 56.7 939.651 55.08 946.491 55.08C955.491 55.08 962.691 58.14 968.091 64.26C973.491 70.2 976.191 78.48 976.191 89.1V192.78ZM1037.02 136.89C1037.2 140.85 1038.1 144.54 1039.72 147.96C1041.52 151.2 1043.86 154.08 1046.74 156.6C1049.8 158.94 1053.22 160.83 1057 162.27C1060.96 163.53 1065.1 164.16 1069.42 164.16C1077.88 164.16 1084.36 162.72 1088.86 159.84C1093.36 156.78 1096.6 153.18 1098.58 149.04L1127.74 165.24C1126.12 168.66 1123.87 172.26 1120.99 176.04C1118.11 179.64 1114.33 182.97 1109.65 186.03C1105.15 189.09 1099.57 191.61 1092.91 193.59C1086.43 195.57 1078.78 196.56 1069.96 196.56C1059.88 196.56 1050.7 194.94 1042.42 191.7C1034.14 188.46 1026.94 183.78 1020.82 177.66C1014.88 171.54 1010.2 164.07 1006.78 155.25C1003.54 146.43 1001.92 136.44 1001.92 125.28V123.66C1001.92 113.4 1003.63 104.04 1007.05 95.58C1010.65 87.12 1015.51 79.92 1021.63 73.98C1027.75 68.04 1034.86 63.45 1042.96 60.21C1051.24 56.79 1060.06 55.08 1069.42 55.08C1080.94 55.08 1090.84 57.15 1099.12 61.29C1107.4 65.25 1114.24 70.38 1119.64 76.68C1125.04 82.8 1129 89.64 1131.52 97.2C1134.04 104.58 1135.3 111.78 1135.3 118.8V136.89H1037.02ZM1069.15 85.86C1060.51 85.86 1053.49 88.11 1048.09 92.61C1042.69 96.93 1039.18 101.97 1037.56 107.73H1100.74C1099.66 101.43 1096.24 96.21 1090.48 92.07C1084.9 87.93 1077.79 85.86 1069.15 85.86Z" fill="white"/>
</svg>
